<svg width="55" height="55" viewBox="0 0 55 55" xmlns="http://www.w3.org/2000/svg">
  <!-- Molar Superior - Simplificado y Realista -->
  
  <!-- Raíces (3 raíces) -->
  <path d="M 15 0 L 15 13 L 19 13 L 19 0 Z" 
        fill="#E0D0B0" stroke="#A89070" stroke-width="0.5" opacity="0.4"/>
  <path d="M 25 0 L 25 13 L 30 13 L 30 0 Z" 
        fill="#E0D0B0" stroke="#A89070" stroke-width="0.5" opacity="0.4"/>
  <path d="M 36 0 L 36 13 L 40 13 L 40 0 Z" 
        fill="#E0D0B0" stroke="#A89070" stroke-width="0.5" opacity="0.4"/>
  
  <!-- CEJ en Y=13 -->
  <line x1="14" y1="13" x2="41" y2="13" stroke="#999" stroke-width="0.8"/>
  
  <!-- Corona con cúspides -->
  <path d="M 14 13
           L 13 16
           L 13 28
           L 16 32
           L 19 30
           L 22 34
           L 27.5 36
           L 33 34
           L 36 30
           L 39 32
           L 42 28
           L 42 16
           L 41 13 Z" 
        fill="#F8F8F8" stroke="#707070" stroke-width="0.8"/>
  
  <!-- Surcos principales -->
  <line x1="22" y1="13" x2="22" y2="33" stroke="#A0A0A0" stroke-width="0.6" opacity="0.5"/>
  <line x1="33" y1="13" x2="33" y2="33" stroke="#A0A0A0" stroke-width="0.6" opacity="0.5"/>
  
  <!-- Sombra -->
  <path d="M 13 16 L 13 28 Q 13.5 29, 15 30" 
        fill="none" stroke="#D0D0D0" stroke-width="1.5" opacity="0.5"/>
  
  <!-- Brillo -->
  <ellipse cx="18" cy="22" rx="2.5" ry="7" 
           fill="#FFFFFF" opacity="0.35"/>
</svg>
